<svg width="46" height="46" viewBox="0 0 46 46" fill="none" xmlns="http://www.w3.org/2000/svg">
<circle cx="23" cy="23" r="23" fill="#C394FF"/>
<path d="M15.6912 34.8297C15.4394 34.7267 15.1578 34.4692 15.0092 34.2058C14.9038 34.0192 14.8886 33.8932 14.87 33.0532C14.856 32.4197 14.8282 32.0975 14.7854 32.0717C14.7504 32.0505 14.3782 32.0328 13.9583 32.0324L13.1949 32.0316L13.2114 27.1198L13.2278 22.2081L13.7094 18.8026C13.9742 16.9296 14.229 15.2776 14.2755 15.1313C14.4002 14.7395 14.7541 14.258 15.1198 13.9825C15.4943 13.7005 16.4669 13.2417 17.104 13.0466C17.6919 12.8666 18.7586 12.627 19.6801 12.468C22.1797 12.0368 24.2212 12.0589 26.8614 12.5457C29.8805 13.1024 31.3874 13.873 31.811 15.077C31.8875 15.2943 32.0813 16.5378 32.3956 18.8283L32.8657 22.2545V27.143V32.0316L32.1317 32.0324C31.7279 32.0328 31.369 32.0505 31.334 32.0717C31.2916 32.0973 31.2628 32.4158 31.2476 33.027C31.2213 34.0895 31.1672 34.2723 30.7851 34.5904C30.0499 35.2023 28.7615 34.9143 28.4968 34.0789C28.4608 33.9653 28.4336 33.5168 28.4336 33.0378C28.4336 32.3426 28.4185 32.1819 28.3465 32.1139C28.2686 32.0402 27.7129 32.0316 23.0596 32.0316C18.4064 32.0316 17.8506 32.0402 17.7727 32.1139C17.7006 32.1821 17.6856 32.346 17.6851 33.0701C17.6846 33.8785 17.6748 33.9635 17.554 34.2058C17.3983 34.518 17.2451 34.6603 16.9101 34.8039C16.6048 34.9348 15.9805 34.948 15.6912 34.8297ZM16.7488 28.9734C17.2733 28.7961 17.6382 28.3039 17.6382 27.7738C17.6382 27.0367 17.0561 26.478 16.288 26.478C15.9062 26.478 15.6755 26.5595 15.3931 26.794C15.0706 27.0618 14.9466 27.3305 14.9466 27.7616C14.9466 28.1689 15.0611 28.4389 15.3399 28.6885C15.6972 29.0085 16.2903 29.1284 16.7488 28.9734ZM30.4316 28.9012C31.433 28.4209 31.433 27.1024 30.4316 26.6221C29.7221 26.2818 28.8625 26.5761 28.557 27.2639C28.4327 27.5436 28.4517 28.0487 28.5972 28.3329C28.9237 28.9706 29.7518 29.2272 30.4316 28.9012ZM30.5423 23.1768C30.7048 23.1476 30.8938 23.074 30.9622 23.0132C31.0995 22.8912 31.2056 22.5048 31.1688 22.2605C31.1558 22.1741 30.973 20.9326 30.7627 19.5017C30.3688 16.8226 30.3261 16.637 30.0498 16.4007C29.7647 16.1569 29.9002 16.1616 23.098 16.1592C18.4956 16.1575 16.6117 16.1736 16.4329 16.2162C16.1066 16.2939 15.8787 16.5156 15.7765 16.8547C15.6394 17.3099 14.9072 22.4268 14.949 22.6377C15.0046 22.9177 15.2371 23.1345 15.5299 23.1793C15.9271 23.24 30.2029 23.2376 30.5423 23.1768ZM27.2425 15.0056C27.4982 14.9496 27.6399 14.8083 27.6891 14.5603C27.733 14.3389 27.5923 14.0451 27.4034 13.9637C27.3036 13.9207 26.0776 13.9043 23.0155 13.9052C19.0728 13.9063 18.7575 13.9129 18.6478 13.9969C18.387 14.1967 18.3354 14.5013 18.5152 14.7802C18.58 14.8807 18.6864 14.9621 18.7781 14.9812C18.8629 14.9989 18.9571 15.0213 18.9876 15.0309C19.1233 15.0737 27.0425 15.0494 27.2425 15.0056Z" fill="#3D3D3D"/>
</svg>
