<svg width="46" height="46" viewBox="0 0 46 46" fill="none" xmlns="http://www.w3.org/2000/svg">
<circle cx="23" cy="23" r="23" fill="#36F3FF"/>
<path d="M18.6466 12.8653C18.6402 12.8653 18.6402 12.8653 18.6339 12.8653C18.6147 12.8406 18.5956 12.8151 18.5769 12.7896C18.602 12.8147 18.6211 12.8402 18.6466 12.8653Z" fill="#3D3D3D"/>
<path d="M19.1041 23.6865V23.2248H20.4181C20.8513 22.9987 21.3073 22.6875 21.7978 22.2547C21.9474 22.1227 22.0816 22.0158 22.2193 21.903H19.1041V20.6831H24.1059V20.6947C24.4936 20.5312 24.8371 20.4416 25.1671 20.3715V14.7277C25.1671 14.7082 25.1735 14.6894 25.1735 14.6703V14.5942C25.1799 12.8403 26.2224 13.1197 26.2224 13.1197C26.8389 13.1827 26.9784 14.0414 27.0103 14.5308C27.0421 14.8424 27.2578 14.8672 27.2578 14.8672H27.7344C27.9185 14.8672 27.9575 14.7277 27.9575 14.6193C27.9511 14.5814 27.9511 14.5432 27.9444 14.4982V14.4922C27.9005 14.1299 27.824 13.5776 27.722 13.2783C27.659 13.1197 27.5754 12.9798 27.4869 12.8651C27.4678 12.8403 27.449 12.8148 27.4299 12.7893C27.4048 12.7638 27.3853 12.7383 27.3598 12.7192C27.3084 12.6682 27.2581 12.6243 27.2075 12.5857C27.1569 12.5411 27.0991 12.5032 27.0425 12.4653C27.0425 12.4589 27.0361 12.4589 27.0361 12.4589C26.9281 12.3952 26.8198 12.3442 26.699 12.3003C26.5276 12.2366 26.375 12.2111 26.2606 12.1916C26.1901 12.1852 26.1275 12.1792 26.0574 12.1792C26.051 12.1792 26.045 12.1792 26.045 12.1792H26.0131C24.9643 12.1792 24.1066 13.0368 24.1066 14.0857V16.7673H19.1041V14.7277C19.1041 14.7082 19.1105 14.6894 19.1105 14.6703V14.5942C19.1105 12.8403 20.1594 13.1197 20.1594 13.1197C20.7695 13.1827 20.9154 14.0414 20.9469 14.5308C20.9791 14.8424 21.1951 14.8672 21.1951 14.8672H21.6718C21.8563 14.8672 21.8941 14.7277 21.8941 14.6193C21.8878 14.5814 21.8878 14.5432 21.8818 14.4982V14.4922C21.8371 14.1299 21.7606 13.5776 21.659 13.2783C21.5956 13.1197 21.5131 12.9798 21.4239 12.8651C21.4051 12.8403 21.386 12.8148 21.3665 12.7893C21.3414 12.7638 21.3226 12.7383 21.2971 12.7192C21.2461 12.6682 21.1951 12.6243 21.1441 12.5857C21.0935 12.5411 21.0361 12.5032 20.9791 12.4653C20.9791 12.4589 20.9724 12.4589 20.9724 12.4589C20.8644 12.3952 20.7564 12.3442 20.636 12.3003C20.4643 12.2366 20.3116 12.2111 20.1973 12.1916C20.1271 12.1852 20.0641 12.1792 19.9936 12.1792C19.9873 12.1792 19.9813 12.1792 19.9813 12.1792H19.9498C18.9009 12.1792 18.0433 13.0368 18.0433 14.0857V23.7768C18.3883 23.7783 18.74 23.7551 19.1041 23.6865ZM19.1041 18.0896H24.1059V19.3608H19.1041V18.0896Z" fill="#3D3D3D"/>
<path d="M33.3912 30.9192C33.3912 31.5275 32.8985 32.0206 32.2902 32.0206H13.7098C13.1019 32.0206 12.6088 31.5278 12.6088 30.9192V15.4028H11.0045V32.549C11.0045 33.2517 11.5738 33.8202 12.2754 33.8202H33.7246C34.4266 33.8202 34.9959 33.2517 34.9959 32.549V15.4028H33.3912V30.9192Z" fill="#3D3D3D"/>
<path d="M32.0041 23.1892C31.7986 22.9923 31.5279 22.7917 31.2474 22.5712C28.7056 20.8045 26.2393 21.4398 26.2393 21.4398C25.2673 21.637 24.3328 21.7578 22.4645 23.4037C20.6026 25.0559 19.2106 24.9738 17.8183 24.8973C16.4266 24.8144 15.0219 23.6193 14.7238 23.3268C14.5524 23.1562 14.3041 23.1498 14.0968 23.2105C13.7889 23.3373 13.715 23.7535 13.7004 24.0288V29.9238C13.7004 30.4387 14.2726 30.8647 14.9713 30.8647H31.025C31.7304 30.8647 32.2963 30.4387 32.2963 29.9238V24.1023C32.2816 23.8229 32.2194 23.4262 32.0041 23.1892Z" fill="#3D3D3D"/>
</svg>
