<svg width="46" height="46" viewBox="0 0 46 46" fill="none" xmlns="http://www.w3.org/2000/svg">
<circle cx="23" cy="23" r="23" fill="#C3FF94"/>
<path d="M33.0905 29.7849C33.0924 29.801 33.0934 29.8173 33.0937 29.8336C33.1017 30.7234 32.0384 31.7925 30.3229 32.6214C28.933 33.293 26.5343 34.0936 23 34.0936C19.4657 34.0936 17.067 33.293 15.6771 32.6214C13.9616 31.7925 12.8983 30.7232 12.9062 29.8336C12.9065 29.8173 12.9075 29.801 12.9094 29.7849L13.6434 23.178C13.6514 23.1052 13.6766 23.0354 13.7168 22.9742C13.757 22.913 13.8111 22.8621 13.8746 22.8258C13.9382 22.7894 14.0094 22.7686 14.0826 22.765C14.1557 22.7614 14.2286 22.7752 14.2955 22.8051L22.1308 26.3174C22.4042 26.4398 22.7004 26.5031 23 26.5031C23.2996 26.5031 23.5958 26.4398 23.8693 26.3174L31.7043 22.8052C31.7711 22.7752 31.844 22.7615 31.9172 22.7651C31.9903 22.7687 32.0615 22.7895 32.1251 22.8258C32.1887 22.8622 32.2427 22.913 32.2829 22.9742C32.3231 23.0355 32.3483 23.1053 32.3564 23.1781L33.0905 29.7849ZM37.5422 17.1866L23.8691 11.0573C23.5957 10.9349 23.2995 10.8716 22.9999 10.8716C22.7003 10.8716 22.4041 10.9349 22.1307 11.0573L8.45763 17.1866C8.27062 17.2704 8.11184 17.4065 8.00044 17.5785C7.88904 17.7506 7.82977 17.9511 7.82977 18.1561C7.82977 18.361 7.88904 18.5616 8.00044 18.7336C8.11184 18.9056 8.27062 19.0418 8.45763 19.1256L22.1307 25.2549C22.4041 25.3773 22.7003 25.4406 22.9999 25.4406C23.2995 25.4406 23.5957 25.3773 23.8691 25.2549L35.2187 20.1671V24.1431C35.0573 24.2362 34.9232 24.3702 34.8299 24.5315C34.7366 24.6929 34.6875 24.876 34.6875 25.0623V31.9686H36.8125V25.0623C36.8125 24.876 36.7633 24.6929 36.6701 24.5315C36.5768 24.3702 36.4427 24.2362 36.2812 24.1431V19.6908L37.5421 19.1256C37.7291 19.0418 37.8879 18.9056 37.9993 18.7336C38.1107 18.5616 38.17 18.361 38.17 18.1561C38.17 17.9511 38.1107 17.7506 37.9993 17.5785C37.8879 17.4065 37.7291 17.2704 37.5421 17.1866H37.5422Z" fill="#3D3D3D"/>
</svg>
